<svg xmlns="http://www.w3.org/2000/svg" version="1.0" viewBox="0 0 500 500"><g fill="#6FF" stroke="#6FF" stroke-width=".3"><path d="M338.9 65.4c-.3.3-2 .8-3.8 1.1-1.9.3-4.3 1.1-5.5 1.7-1.1.7-2.7 1.3-3.4 1.4-4.8.8-16.2 12.9-14.7 15.5.6.8-1.2 2.2-3.2 2.5-5.5.9-12.2 8.7-13 15.2l-.5 3.7 7.6-7.8c4.2-4.3 7.9-7.6 8.3-7.4 1.5.9 5.3-1.3 5.3-2.9 0-1.6-.2-1.6-2.3.2-1.3 1-1 .7.5-.8s2.8-3.1 2.8-3.5c.1-1.7 10.2-11 12-11.1 3-.2 6.3-2 9.1-4.8 1.8-1.9 2.8-3.4 2.3-3.4-.6 0-1.3.2-1.5.4zm-3.9 1.9c0 .2-1.5 1.6-3.2 3.3l-3.3 2.9 2.9-3.3c2.8-3 3.6-3.7 3.6-2.9zm-8 3c0 .2-1.2 1.4-2.7 2.8l-2.8 2.4 2.4-2.8c2.3-2.5 3.1-3.2 3.1-2.4zm-10 10c0 .2-1.2 1.4-2.7 2.8l-2.8 2.4 2.4-2.8c2.3-2.5 3.1-3.2 3.1-2.4zm-8 8c0 .2-1 1.2-2.2 2.3l-2.3 1.9 1.9-2.3c1.8-2.1 2.6-2.7 2.6-1.9zm-10 10.1c0 .2-.8 1-1.7 1.7-1.6 1.3-1.7 1.2-.4-.4 1.3-1.6 2.1-2.1 2.1-1.3zM339.5 68c-3.9 4.1-.8 4.1 3.7 0 2.9-2.6 3.1-2.9 1.2-3-1.1 0-3.3 1.3-4.9 3zm5.5-.5c-2.2 2.4-2.3 2.5-.3 2.5 1.1 0 3-1.1 4.3-2.5 2.2-2.4 2.3-2.5.3-2.5-1.1 0-3 1.1-4.3 2.5zm5 0c-2.1 2.3-2.2 2.5-.5 2.5 1 0 3-1 4.4-2.3 2.3-1.9 2.4-1.9.8-.1-1.7 2.1-1.7 2.1 3.9 3.3 5 1.2 5.8 1.1 7.7-.6 2.2-1.8 2.2-1.8.4.4-2.4 2.7-.4 4.2 2.4 1.7 2.6-2.4 1.5-3.2-7.2-5.4-9.3-2.5-9.1-2.5-11.9.5zm10-.1c0 .2-.8 1-1.7 1.7-1.6 1.3-1.7 1.2-.4-.4 1.3-1.6 2.1-2.1 2.1-1.3zm4 1c0 .2-.8 1-1.7 1.7-1.6 1.3-1.7 1.2-.4-.4 1.3-1.6 2.1-2.1 2.1-1.3zm6.2 3.8c-1.8 1.8-1.4 3.1.8 2.5 1.1-.3 2-.1 2 .5s.9.8 2 .5c1.1-.3 1.8-.1 1.4.4-.5.8.3 1.1 2.2.8.4 0 1.1.5 1.5 1.3.6.9 1.3 1 2.4.3 2.2-1.4 2-3-.4-3.1-2.8-.2-8.1-2.5-8.1-3.5 0-1.3-2.4-1.1-3.8.3zm14.5 5.6c-3.4 3.8-.8 4.5 3.2.9l2.6-2.2-1.9 2.2c-1.9 2.3-1.9 2.3 0 2.3 1 .1 3.6.7 5.6 1.4 3.3 1.2 3.9 1.1 5.3-.4 2-2.2 1.3-2.7-5.8-4.6-6.7-1.8-7.1-1.8-9 .4zm9.3.6c0 .2-.8 1-1.7 1.7-1.6 1.3-1.7 1.2-.4-.4 1.3-1.6 2.1-2.1 2.1-1.3zm4 1c0 .2-.8 1-1.7 1.7-1.6 1.3-1.7 1.2-.4-.4 1.3-1.6 2.1-2.1 2.1-1.3zm2.7 2.4c-2.1 2.3-2.1 3.2-.3 3.2 2 0 4.1-2.9 2.9-4.1-.6-.6-1.5-.3-2.6.9zm2.9 2.1c-1.7 1.9-1.7 2 .9 3.7 2.4 1.5 2.8 1.6 4.2.2 2.4-2.5.6-4.3-2-2.1-2 1.7-2.1 1.7-.8 0 2.1-2.6 0-4.3-2.3-1.8zm5.4 4.6c-2 2.4-.1 3.9 2.3 1.8l2.2-1.8-1.9 2.3c-2.5 2.9-.8 5.2 1.7 2.4 1.5-1.6 1.5-2 .1-4-1.8-2.6-2.7-2.7-4.4-.7zm4.2 5.7c-.7.7-1.2 2.1-1.2 3.2 0 1.9 0 1.9 2.3 0l2.2-1.9-2.2 2.6c-1.3 1.4-2.3 3.4-2.3 4.4 0 1.7.3 1.7 2.6-.7 2.1-2.1 2.5-3.1 1.9-5.7-.7-3.4-1.4-3.8-3.3-1.9zm-3.6 14.2-6.8 7.7 2 4.7c1.3 2.9 1.9 5.8 1.5 7.3-.6 2.4-.6 2.4 2.5-.5 3.6-3.3 3.4-6.9-.2-3.9l-2.1 1.8 1.9-2.2c1.2-1.4 1.6-3.1 1.3-4.4-.5-1.7.3-3.3 2.8-6.1 3.9-4.3 4.7-7.1 1.3-4.2-1.4 1.1-1.2.6.5-1.3 1.6-1.7 2.7-3.9 2.5-4.8-.2-1.3-2.1.3-7.2 5.9zm-112.3-3.2c-2.6 2.7-2.8 4-1.2 6.9 1 2 1.1 2 3.2.2 1.2-1 .7-.1-1.1 2-4.4 5.2-4.4 8.1.1 4.1l3.2-2.9-3.2 3.5c-1.8 2-3.3 4.4-3.3 5.5 0 1.7.2 1.7 2.4-.4 2-1.9 3.6-5.2 4-8.3.1-.3.4-1 .8-1.3.4-.4 0-2.1-.8-3.7-1.5-2.9-1.6-3-3.7-1.1-2 1.6-2 1.5.1-.9 1.3-1.4 2.2-3.4 2-4.3-.2-1.4-.6-1.3-2.5.7zm-.2 20.1c-2.9 3.2-1.9 5.7 1.2 3 2.2-1.8 2.2-1.8.5.3-1.9 2.2-2.4 4.4-.9 4.4 2.1 0 3.3-3 2.5-6.6l-.9-3.6-2.4 2.5z"/><path d="M407.1 130.6c-2.2 2.6-4.1 5-4.1 5.5 0 .8-9.1 7.4-10 7.2-.3 0-1.6.4-3 .9-1.4.6-3.8 1.2-5.5 1.5-1.6.2-4.1 1.5-5.5 2.9-2.2 2.2-2.3 2.4-.5 2.4 1 0 3.3-1.2 4.9-2.8l3.1-2.7-2.4 2.7c-3.8 4.3-.1 3.6 5.1-.9 3.9-3.3 4-3.4 1.4-.5-3.2 3.5-1.9 4.5 2.2 1.6 1.2-.8 2.2-1.3 2.2-.9 0 .9 5.5-2.2 8.9-5.1 2.6-2.1 8.3-10.9 7.1-10.9-.2 0 0-1 .4-2.3 1.3-3.9 0-3.5-4.3 1.4zm2.9 1.7c0 .2-1.2 1.4-2.7 2.8l-2.8 2.4 2.4-2.8c2.3-2.5 3.1-3.2 3.1-2.4zm-10 10c0 .2-1.2 1.4-2.7 2.8l-2.8 2.4 2.4-2.8c2.3-2.5 3.1-3.2 3.1-2.4zm-100-9.8c-2 2.4-.1 3.9 2.3 1.8 2.2-1.8 2.2-1.8.5.3-1 1.1-1.8 2.4-1.8 2.7 0 1.3 2.8.7 4-.8 1-1.3 1-1.9-.5-3.5-2.2-2.4-2.9-2.5-4.5-.5zm5 5c-2 2.4-.1 3.9 2.3 1.8 2-1.7 2.1-1.7.8 0-2.1 2.6 0 4.3 2.3 1.8 1.6-1.8 1.6-2-.6-3.5-2.8-2-3.2-2-4.8-.1zm6 4c-.7.9-1 1.9-.6 2.2.8.9 3.8-.9 4.4-2.5.5-1.7-2.3-1.5-3.8.3zm3.6 1.4c-1.2 1.3-1.4 2.1-.6 2.6 1.3.8 5.2-2.4 4.4-3.6-.8-1.4-1.9-1.1-3.8 1zm3.6 1.3c-2.9 2.9-.1 3.9 3.2 1 2.1-1.7 2.1-1.7.2.5-1.1 1.3-1.4 2.3-.8 2.3.7 0 1.2 1.4 1.2 3.2v3.1l2.8-2.4c2.4-2.2 2.4-2.1-.4 1.1-3.3 3.8-6.4 8.5-6.4 9.7 0 .4 1.9-1.1 4.3-3.2l4.2-4-3.9 4.2c-2.2 2.4-4.2 4.1-4.4 3.8-.2-.2-2.1.8-4.1 2.3-2 1.4-3.8 2.7-3.9 2.8-.2.2-.1 1.1.2 2.2.5 1.5 1.6 2 4.4 2 2 0 4.3-.5 5.1-1.1 1.2-1 1.3-.9.7.2-.7 1-.4 1.2 1.3.6 1.1-.3 3.3-.8 4.7-1.1 1.5-.3 3.7-1 4.8-1.6 1.2-.7 2.6-1.3 3.3-1.4 3.2-.5 10.5-7.4 13.9-12.9l1.8-3-3.5 3c-1.9 1.6-.8.3 2.4-3 4.4-4.5 5.5-6.1 4.2-6.3-.9-.2-3.1.9-4.8 2.5l-3.2 2.8 2.4-2.8c1.4-1.5 1.9-2.7 1.3-2.7-1.4 0-4.3 4.1-3.6 5.1.6 1-12 13.5-13.7 13.7-.8 0-3.6.7-6.2 1.6-2.7.9-4.7 1.2-4.5.8.2-.4 1.6-3.1 3.1-6 1.5-2.8 2.5-5.2 2.3-5.2-.3 0 0-1.5.5-3.3 1.6-5.4-1.3-9.6-6.6-9.7-.6 0-1.6.5-2.3 1.2zm19.8 20.1c0 .2-1 1.2-2.2 2.3l-2.3 1.9 1.9-2.3c1.8-2.1 2.6-2.7 2.6-1.9zm-6 1c0 .2-1.5 1.6-3.2 3.3l-3.3 2.9 2.9-3.3c2.8-3 3.6-3.7 3.6-2.9zm-13 2.1c0 .3-.4.8-1 1.1-.5.3-1 .1-1-.4 0-.6.5-1.1 1-1.1.6 0 1 .2 1 .4z"/><path d="M354 148.5c-2.2 2.4-2.3 2.5-.3 2.5 1.1 0 3-1.1 4.3-2.5 2.2-2.4 2.3-2.5.3-2.5-1.1 0-3 1.1-4.3 2.5zm5 0c-2.2 2.4-2.3 2.5-.3 2.5 1.1 0 3-1.1 4.3-2.5 2.2-2.4 2.3-2.5.3-2.5-1.1 0-3 1.1-4.3 2.5zm5 0c-2.2 2.4-2.3 2.5-.3 2.5 1.1 0 3-1.1 4.3-2.5 2.2-2.4 2.3-2.5.3-2.5-1.1 0-3 1.1-4.3 2.5zm5 0c-2.2 2.4-2.3 2.5-.3 2.5 1.1 0 3-1.1 4.3-2.5 2.2-2.4 2.3-2.5.3-2.5-1.1 0-3 1.1-4.3 2.5zm5 0c-2.2 2.4-2.3 2.5-.3 2.5 1.1 0 3-1.1 4.3-2.5 2.2-2.4 2.3-2.5.3-2.5-1.1 0-3 1.1-4.3 2.5z"/></g><path fill="#9FF" stroke="#9FF" stroke-width=".3" d="m338.4 68.2-2.9 3.3 3.3-2.9c3-2.8 3.7-3.6 2.9-3.6-.2 0-1.6 1.5-3.3 3.2zm5.5-.5-2.4 2.8 2.8-2.4c2.5-2.3 3.2-3.1 2.4-3.1-.2 0-1.4 1.2-2.8 2.7zm5 0-2.4 2.8 2.8-2.4c2.5-2.3 3.2-3.1 2.4-3.1-.2 0-1.4 1.2-2.8 2.7zm5 0-2.4 2.8 2.8-2.4c2.5-2.3 3.2-3.1 2.4-3.1-.2 0-1.4 1.2-2.8 2.7zm-22.4 2.5-4 4.3 4.3-4c3.9-3.6 4.7-4.5 3.9-4.5-.2 0-2.1 1.9-4.2 4.2zm26.4-1.5-2.4 2.8 3-2.5c1.7-1.4 3.2-2.6 3.4-2.8.2-.1 0-.2-.6-.2-.5 0-2 1.2-3.4 2.7zm4.5.5-1.9 2.3 2.3-1.9c1.2-1.1 2.2-2.1 2.2-2.3 0-.8-.8-.2-2.6 1.9zm-37.5 2.5-3.4 3.8 3.8-3.4c2-1.9 3.7-3.6 3.7-3.8 0-.8-.8 0-4.1 3.4zm40.5-.5-1.9 2.3 2.3-1.9c1.2-1.1 2.2-2.1 2.2-2.3 0-.8-.8-.2-2.6 1.9zm4.1.8c-1 1.1-1.6 2.2-1.4 2.4.2.2 1.2-.7 2.2-2 2.2-2.9 1.7-3.2-.8-.4zm1.7 2.9c-.9.5.1 1.3 2.8 2.4 2.2.8 4 1.1 4 .6 0-.5-.5-.9-1.1-.9-.5 0-.7-.4-.4-1 .4-.6-.1-.7-1-.3-1 .3-2 .1-2.4-.5-.3-.6-1.2-.7-1.9-.3zm12.8 2.6c-1.5 1.8-3.7 1.9-4.3.2-.3-.6-.6-.3-.6.8-.1 2.8 3.1 2.7 5.3-.2 1.9-2.5 1.6-3.2-.4-.8zm3.9 1.2-2.4 2.8 2.8-2.4c2.5-2.3 3.2-3.1 2.4-3.1-.2 0-1.4 1.2-2.8 2.7zm4 1-2.4 2.8 2.8-2.4c2.5-2.3 3.2-3.1 2.4-3.1-.2 0-1.4 1.2-2.8 2.7zm3.5 1.5-1.9 2.3 2.3-1.9c2.1-1.8 2.7-2.6 1.9-2.6-.2 0-1.2 1-2.3 2.2zm-82 2-2.9 3.3 3.3-2.9c3-2.8 3.7-3.6 2.9-3.6-.2 0-1.6 1.5-3.3 3.2zm86-1-1.9 2.3 2.3-1.9c2.1-1.8 2.7-2.6 1.9-2.6-.2 0-1.2 1-2.3 2.2zm3 2-1.9 2.3 2.3-1.9c1.2-1.1 2.2-2.1 2.2-2.3 0-.8-.8-.2-2.6 1.9zm3.5 1.5c-1.3 1.6-1.2 1.7.4.4.9-.7 1.7-1.5 1.7-1.7 0-.8-.8-.3-2.1 1.3zm-93.5 3.5-2.9 3.3 3.3-2.9c1.7-1.7 3.2-3.1 3.2-3.3 0-.8-.8-.1-3.6 2.9zm96-1-1.9 2.3 2.3-1.9c1.2-1.1 2.2-2.1 2.2-2.3 0-.8-.8-.2-2.6 1.9zm-101.5 1.5-2.4 2.8 2.8-2.4c2.5-2.3 3.2-3.1 2.4-3.1-.2 0-1.4 1.2-2.8 2.7zm104 1c-1.3 1.6-1.2 1.7.4.4 1.6-1.3 2.1-2.1 1.3-2.1-.2 0-1 .8-1.7 1.7zm1.5 3.5-1.9 2.3 2.3-1.9c1.2-1.1 2.2-2.1 2.2-2.3 0-.8-.8-.2-2.6 1.9zm1.5 3.5-2.4 2.8 2.8-2.4c2.5-2.3 3.2-3.1 2.4-3.1-.2 0-1.4 1.2-2.8 2.7zm-117.5 2.5-1.9 2.3 2.3-1.9c2.1-1.8 2.7-2.6 1.9-2.6-.2 0-1.2 1-2.3 2.2zm117 3-2.9 3.3 3.3-2.9c3-2.8 3.7-3.6 2.9-3.6-.2 0-1.6 1.5-3.3 3.2zm-116.5 1.5-2.4 2.8 2.8-2.4c2.5-2.3 3.2-3.1 2.4-3.1-.2 0-1.4 1.2-2.8 2.7zm117 3-2.4 2.8 2.8-2.4c2.5-2.3 3.2-3.1 2.4-3.1-.2 0-1.4 1.2-2.8 2.7zm-116.5 1.5-1.9 2.3 2.3-1.9c2.1-1.8 2.7-2.6 1.9-2.6-.2 0-1.2 1-2.3 2.2zm.5 4.5-2.4 2.8 2.8-2.4c2.5-2.3 3.2-3.1 2.4-3.1-.2 0-1.4 1.2-2.8 2.7zm.6 4.5-4 4.3 4.3-4c3.9-3.6 4.7-4.5 3.9-4.5-.2 0-2.1 1.9-4.2 4.2zm109.6 5.2-2.4 3.1 2.8-2.7c1.6-1.5 2.7-2.9 2.4-3.1-.2-.3-1.5 1-2.8 2.7zm-111.2 1.3-2.4 2.8 2.8-2.4c2.5-2.3 3.2-3.1 2.4-3.1-.2 0-1.4 1.2-2.8 2.7zm111.5 3.5-2.9 3.3 3.3-2.9c3-2.8 3.7-3.6 2.9-3.6-.2 0-1.6 1.5-3.3 3.2zm-111 1-1.9 2.3 2.3-1.9c2.1-1.8 2.7-2.6 1.9-2.6-.2 0-1.2 1-2.3 2.2zm2 3-1.9 2.3 2.3-1.9c1.2-1.1 2.2-2.1 2.2-2.3 0-.8-.8-.2-2.6 1.9zm108 2-2.9 3.3 3.3-2.9c3-2.8 3.7-3.6 2.9-3.6-.2 0-1.6 1.5-3.3 3.2zm-106 1-1.9 2.3 2.3-1.9c1.2-1.1 2.2-2.1 2.2-2.3 0-.8-.8-.2-2.6 1.9zm3 2-1.9 2.3 2.3-1.9c2.1-1.8 2.7-2.6 1.9-2.6-.2 0-1.2 1-2.3 2.2zm2.5 2.5c-1.3 1.6-1.2 1.7.4.4 1.6-1.3 2.1-2.1 1.3-2.1-.2 0-1 .8-1.7 1.7zm3.5 1.5-1.9 2.3 2.3-1.9c1.2-1.1 2.2-2.1 2.2-2.3 0-.8-.8-.2-2.6 1.9zm3 2-1.9 2.3 2.3-1.9c2.1-1.8 2.7-2.6 1.9-2.6-.2 0-1.2 1-2.3 2.2zm4 1-1.9 2.3 2.5-2c1.4-1.1 2.7-2.1 2.9-2.2.2-.2 0-.3-.6-.3-.5 0-1.8 1-2.9 2.2zm78.5 1.5-3.4 3.8 3.8-3.4c2-1.9 3.7-3.6 3.7-3.8 0-.8-.8 0-4.1 3.4zm-74.5-.5-1.9 2.3 2.3-1.9c1.2-1.1 2.2-2.1 2.2-2.3 0-.8-.8-.2-2.6 1.9zm68.5 1.5-3.4 3.8 3.8-3.4c2-1.9 3.7-3.6 3.7-3.8 0-.8-.8 0-4.1 3.4zm-64.8-.4c-1.3 2.1-1.2 2.1.5.5 1-1 1.6-2 1.3-2.2-.3-.3-1.1.5-1.8 1.7zm58.3 1.9-2.9 3.3 3.3-2.9c3-2.8 3.7-3.6 2.9-3.6-.2 0-1.6 1.5-3.3 3.2zm-36.5 1.5-3.4 3.8 3.8-3.4c3.4-3.3 4.2-4.1 3.4-4.1-.2 0-1.9 1.7-3.8 3.7zm6-1-2.4 2.8 2.8-2.4c1.5-1.4 2.7-2.6 2.7-2.8 0-.8-.8-.1-3.1 2.4zm5 0-2.4 2.8 2.8-2.4c2.5-2.3 3.2-3.1 2.4-3.1-.2 0-1.4 1.2-2.8 2.7zm5 0-2.4 2.8 2.8-2.4c2.5-2.3 3.2-3.1 2.4-3.1-.2 0-1.4 1.2-2.8 2.7zm5 0-2.4 2.8 2.8-2.4c1.5-1.4 2.7-2.6 2.7-2.8 0-.8-.8-.1-3.1 2.4zm5 0-2.4 2.8 2.8-2.4c2.5-2.3 3.2-3.1 2.4-3.1-.2 0-1.4 1.2-2.8 2.7zm5 0-2.4 2.8 2.8-2.4c2.5-2.3 3.2-3.1 2.4-3.1-.2 0-1.4 1.2-2.8 2.7zm-54.5 4.5-2.9 3.3 3.3-2.9c3-2.8 3.7-3.6 2.9-3.6-.2 0-1.6 1.5-3.3 3.2zm23 2-2.9 3.3 3.3-2.9c1.7-1.7 3.2-3.1 3.2-3.3 0-.8-.8-.1-3.6 2.9zm-24.4 4.3c-2.4 2.5-4.2 4.5-3.9 4.5.3 0 2.5-2 4.9-4.5 2.4-2.5 4.2-4.5 3.9-4.5-.3 0-2.5 2-4.9 4.5zm7 8c-2.4 2.5-4.2 4.5-3.9 4.5.3 0 2.5-2 4.9-4.5 2.4-2.5 4.2-4.5 3.9-4.5-.3 0-2.5 2-4.9 4.5zm5.4-.3-2.9 3.3 3.3-2.9c3-2.8 3.7-3.6 2.9-3.6-.2 0-1.6 1.5-3.3 3.2zm-25.3 3.5c-.1 1.3.2 2.3.7 2.3.4 0 1.3-1 2.1-2.3 1.3-2 1.3-2.1-.1-.9-1.3 1-1.7 1-2.1 0-.3-.7-.6-.3-.6.9z"/><path fill="#CFF" stroke="#CFF" stroke-width=".3" d="M374.9 78.9c1.3 1.2 2.7 2.1 3.2 2.1 1.4 0 1.1-2.7-.3-2.7-.7 0-2.2-.4-3.3-.8-1.7-.6-1.7-.4.4 1.4z"/><path fill="#FFF" fill-opacity=".25" stroke="#FFF" stroke-opacity=".25" stroke-width=".3" d="M147.3 127.7c.9.2 2.3.2 3 0 .6-.3-.1-.5-1.8-.5-1.6 0-2.2.2-1.2.5zm10 0c.9.2 2.3.2 3 0 .6-.3-.1-.5-1.8-.5-1.6 0-2.2.2-1.2.5zm46.5 20c.7.3 1.6.2 1.9-.1.4-.3-.2-.6-1.3-.5-1.1 0-1.4.3-.6.6zm10 0c.7.3 1.6.2 1.9-.1.4-.3-.2-.6-1.3-.5-1.1 0-1.4.3-.6.6zm-32 28c.7.3 1.6.2 1.9-.1.4-.3-.2-.6-1.3-.5-1.1 0-1.4.3-.6.6zm-69 19c.7.3 1.6.2 1.9-.1.4-.3-.2-.6-1.3-.5-1.1 0-1.4.3-.6.6zm-59.5 35c.9.2 2.5.2 3.5 0 .9-.3.1-.5-1.8-.5-1.9 0-2.7.2-1.7.5zm90.5 11c.7.3 1.6.2 1.9-.1.4-.3-.2-.6-1.3-.5-1.1 0-1.4.3-.6.6z"/><path fill="#FFF" fill-opacity=".69" stroke="#FFF" stroke-opacity=".69" stroke-width=".3" d="M246.5 160c1 1.1 2 2 2.3 2 .3 0-.3-.9-1.3-2s-2-2-2.3-2c-.3 0 .3.9 1.3 2zm-169 20c1 1.1 2 2 2.3 2 .3 0-.3-.9-1.3-2s-2-2-2.3-2c-.3 0 .3.9 1.3 2zm58.5.4c0 .2.8 1 1.8 1.7 1.5 1.3 1.6 1.2.3-.4s-2.1-2.1-2.1-1.3zm-86.1 28.3c-1.3 1.6-1.2 1.7.4.4.9-.7 1.7-1.5 1.7-1.7 0-.8-.8-.3-2.1 1.3zm-16 1c-1.3 1.6-1.2 1.7.4.4.9-.7 1.7-1.5 1.7-1.7 0-.8-.8-.3-2.1 1.3zM204 239.5c1.3 1.4 2.6 2.5 2.8 2.5.3 0-.5-1.1-1.8-2.5s-2.6-2.5-2.8-2.5c-.3 0 .5 1.1 1.8 2.5z"/><path fill="#FFF" fill-opacity=".75" stroke="#FFF" stroke-opacity=".75" stroke-width=".3" d="M152.8 127.7c.7.3 1.6.2 1.9-.1.4-.3-.2-.6-1.3-.5-1.1 0-1.4.3-.6.6zm-55 10c.7.3 1.6.2 1.9-.1.4-.3-.2-.6-1.3-.5-1.1 0-1.4.3-.6.6zm6 0c.7.3 1.6.2 1.9-.1.4-.3-.2-.6-1.3-.5-1.1 0-1.4.3-.6.6zm104 10c1.2.2 3 .2 4 0 .9-.3-.1-.5-2.3-.4-2.2 0-3 .2-1.7.4zm-16 29c.7.3 1.6.2 1.9-.1.4-.3-.2-.6-1.3-.5-1.1 0-1.4.3-.6.6zm6.3 50.9c0 1.1.3 1.4.6.6.3-.7.2-1.6-.1-1.9-.3-.4-.6.2-.5 1.3zm-87.3 5.1c.6.2 1.8.2 2.5 0 .6-.3.1-.5-1.3-.5-1.4 0-1.9.2-1.2.5zm148.4 1.3c0 1.4.2 1.9.5 1.2.2-.6.2-1.8 0-2.5-.3-.6-.5-.1-.5 1.3zm-171 5.5c0 1.6.2 2.2.5 1.2.2-.9.2-2.3 0-3-.3-.6-.5.1-.5 1.8zm121.9 26.1c0 1.1.3 1.4.6.6.3-.7.2-1.6-.1-1.9-.3-.4-.6.2-.5 1.3zm-33.8 23.1c.9.2 2.5.2 3.5 0 .9-.3.1-.5-1.8-.5-1.9 0-2.7.2-1.7.5zm3.5 7c.6.2 1.8.2 2.5 0 .6-.3.1-.5-1.3-.5-1.4 0-1.9.2-1.2.5z"/><path fill="#FFF" fill-opacity=".19" stroke="#FFF" stroke-opacity=".19" stroke-width=".3" d="M203.9 278.7c-1.3 1.6-1.2 1.7.4.4.9-.7 1.7-1.5 1.7-1.7 0-.8-.8-.3-2.1 1.3zm-76 1c-1.3 1.6-1.2 1.7.4.4.9-.7 1.7-1.5 1.7-1.7 0-.8-.8-.3-2.1 1.3zM53.5 286c1 1.1 2 2 2.3 2 .3 0-.3-.9-1.3-2s-2-2-2.3-2c-.3 0 .3.9 1.3 2zm88.9 30.2-1.9 2.3 2.3-1.9c2.1-1.8 2.7-2.6 1.9-2.6-.2 0-1.2 1-2.3 2.2zm-4.5 4.5c-1.3 1.6-1.2 1.7.4.4.9-.7 1.7-1.5 1.7-1.7 0-.8-.8-.3-2.1 1.3z"/><path fill="#FFF" stroke="#FFF" stroke-width=".3" d="M132 129.9c-8.1 1.8-18.4 5.3-20.5 7.1-.5.5-4.6.8-9 .8-16 0-29.1 8.4-36.8 23.8-2.4 4.7-3 5.2-6.9 5.8-10.1 1.6-17.2 6.8-21.7 15.8-2.3 4.6-3.1 7.5-3.1 11.6 0 5.3-.2 5.7-5.5 11.3-9.5 10-14.5 24.3-11.6 33.2.7 2 2.7 4.9 4.5 6.4 2.1 1.7 3.6 4.1 4 6.2.3 1.9 1.7 4.8 3 6.6 2.4 3.1 13 9.5 15.9 9.5.9 0 1.7 1.4 2.2 3.7 1.4 8.1 8.1 16 17.3 20.7 9.5 4.8 15.8 6.1 30 6h13.4l-.6 2.6c-.3 1.4-1.2 5.6-2 9.5-1.9 8.6-2 11.9-.3 13.3 1.3 1.1 19.9 5.2 23.5 5.2 1.5 0 5.3-3.1 11.5-9.4 5-5.1 11.9-11.1 15.2-13.3 9.6-6.4 19.4-11.5 20.9-11 2.3.9 15-1.1 20.9-3.3 8.1-3 14.8-8.7 18.3-15.4 2.7-5.2 3.2-5.6 6.4-5.6 5.2 0 14.6-2.7 20.3-5.8 9.5-5.2 16.2-15.8 17.5-27.9.7-5.9 1.3-7.6 5-12.4 13.2-17.5 11-40.6-4.4-46.5-3.5-1.3-4.4-2.2-5-4.8-2.4-11.2-13.5-20.5-28.6-24.1-3.5-.8-10.7-1.5-16-1.5-8 0-9.8-.3-9.8-1.5 0-2.4-7-9.5-12-12-8.4-4.3-15.6-5.6-32-6.1-12.6-.3-17.1 0-24 1.5zm34.5 5.6c12.6 1.2 22.8 5.8 26 11.7 1.9 3.6 1.9 3.8.1 9.3-1.4 3.9-1.6 5.9-.9 6.6 2 2 4.8.4 6.7-3.8 1.9-4 2.2-4.1 7-4.5 12.2-.8 25.2 1.9 32.7 6.9 11 7.2 13.4 22.5 5 31.3-4.3 4.6-5.8 5-6.3 1.7-.2-1.6-1.1-2.3-3-2.5-3-.4-3.2 0-4.2 9.2-.7 5.3-3.6 11.1-6.9 13.6-1.1.8-3.9 2.2-6.1 3.1-2.3.9-4.3 2.5-4.5 3.5-.5 2.6 2.5 4.4 5.8 3.4 7.8-2.2 13.7-7.7 16.6-15.4 1.4-3.7 2.4-4.7 5.3-5.7 5.2-1.7 11.6-8.6 13.6-14.7 1-2.9 2-5.2 2.2-5.2.3 0 1.8.7 3.4 1.5 4.5 2.3 6.4 6.9 6.5 15 0 6-.5 8.1-3.3 13.7-3.9 8-8.7 12.3-16 14.4-4.9 1.4-5.3 1.8-5 4.2.3 2.3.8 2.7 3.3 2.7 1.7-.1 4.2-.4 5.8-.8 2.6-.7 2.7-.6 2.1 2-3.6 16.5-13.6 25.8-28.9 27.1-6.3.5-6.5.4-6.5-1.9 0-4.5-5.7-14.6-12.2-21.5-6.1-6.5-6.5-7.2-6.7-11.9-.2-5.9-.2-5.9-5.2-19.7-3-8.3-3.9-12.2-3.9-17 0-8.7.3-9 7.9-7.7 8.2 1.3 11.4 3 13.9 7.4 2.4 3.9 4.6 4.5 6.2 1.5 2.4-4.4-4.7-12-13.3-14.4-2.9-.8-10.6-2-17.3-2.5-6.6-.6-13.6-1.6-15.5-2.2-6.8-2.3-10.9-8.2-10.9-15.8 0-5-2.2-7.6-5.2-6-1.8 1-2 1.8-1.6 7.3.6 6.9 3.5 13.4 7.4 16.5 3.3 2.6 12.6 6.1 16.4 6.1 5.2 0 5.7.6 5.2 7-.5 6.8.6 11.8 5.2 24.5 3.3 9 5 15.5 4 15.5-.3 0-3.1-1.7-6.2-3.8-7.6-5.2-26.4-15.6-32.9-18.3-5-2.1-5.1-2.1-4.2-5.2 2.1-7.2.7-16.4-3.2-22.2-2.8-4.1-8.4-7.9-10.4-7.1-3.3 1.2-2.9 3.7 1.3 7.6 4.9 4.4 6.2 7.4 6.2 14.3 0 7.2-.8 8.1-5.1 6.3-6.3-2.6-20.1-5.7-24.3-5.4-3.1.2-4.2.8-4.5 2.2-.4 2.5 2.4 4.6 6.4 4.6 13.2 0 49.3 16.2 73 32.9 22.2 15.5 28.7 31.1 18 43-9.5 10.5-31.6 14-43.2 6.9-2.8-1.7-7.3-6.7-7.3-8 0-.3 1.7-1 3.8-1.6 4.6-1.4 10.7-7.4 9.9-9.7-1.2-2.9-3.6-2.7-7.8.7-3.9 3.1-4.6 3.3-11.8 3.3-8.5 0-14.5-2.4-22.6-9-4.9-4-7.5-3.9-7.5.5 0 3.4-1.7 4-12.2 4-8.9 0-16.4-2.3-21.7-6.8l-3.4-2.8 2.8-4.3c4.2-6.3 4.7-14.5 1.1-20.4-2.7-4.7-4.6-6-7.1-5.1-2.2.9-1.8 3.8 1 8 2.8 4.1 3 5.9 1.4 10.1C77.7 252.3 61.3 262 50 262c-7.7 0-18-7-18-12.2 0-5.6 9.2-11.6 18.9-12.4 9.6-.9 10.3-1.1 9.9-4.2-.3-2.6-.6-2.7-6.7-3l-6.3-.3.6-3.2c1.2-5.7 4.8-11.9 8.7-14.6 4.2-2.9 5.1-4.3 4.3-6.6-1.2-3.1-5.4-1.6-10.9 3.8-4.3 4.4-5.7 6.7-7.4 12.2-1.2 3.7-2.1 7.7-2.1 9 0 1.6-.9 2.6-3.2 3.6-1.8.7-4.9 2.8-7 4.7l-3.7 3.3-2.2-2.2c-1.9-1.9-2.1-2.9-1.7-8.3.6-6.9 2.2-10.7 8-18.4 3.5-4.7 4.3-5.3 6.7-4.7 4 .8 5.7-1.4 4.2-5.6-2.8-8-.5-17.3 5.6-23.1 8.7-8.3 24.3-7.6 31.9 1.5 3.8 4.5 6 9.9 9.4 23.1 5.5 21.7 10.5 27.6 23.5 27.6 4.6 0 5.5.3 7.1 2.7 2.6 4 5.2 6.1 11.9 9.3 7.7 3.8 15.7 4.8 20.8 2.6 3.1-1.2 3.8-2 3.5-3.8-.3-2.2-.7-2.3-8.8-2.3-7.6 0-9.1-.3-14-3-6-3.3-10-8.3-10-12.6 0-3.3-2.7-5.2-5.3-3.8-.9.6-1.7 1.6-1.7 2.3 0 1.6-4.1 2.8-6.7 2-7.5-2.4-9.2-5.2-13.8-22.4-1.9-7.3-4.5-15.4-5.6-17.9-2.6-6-9.2-12.8-15.1-15.5l-4.6-2.2 1.6-3.3c4.4-9.2 16.3-18.2 26-19.7l4.3-.7-2.3 4.4c-4.4 8.4-2.2 19.3 5.7 28.8 3.1 3.6 5 3.9 6.5 1.1.8-1.6.4-2.8-2.4-6.7-6.9-9.6-7.2-17.4-.9-23.7 6.6-6.6 19.4-11.2 35.3-12.5 8.4-.8 10.8-.7 22.5.4zM80 262.7c1.4 1.4 5.3 4 8.8 5.6 8.4 3.9 21.1 4.8 30.7 2.2 6.4-1.7 6.5-1.7 10 .5 1.9 1.2 3.5 2.6 3.5 3.1 0 2.1-7.4 8.8-12.8 11.7-7.6 4.1-16.7 6.2-26.8 6.2-11.4 0-17.7-1.4-26.4-5.7-8.1-4.1-12.9-9.4-13.3-14.7-.2-2.7.1-3 5.1-4.1 2.9-.7 7.9-2.6 11-4.3 3.1-1.6 6.2-3 6.7-3.1.6 0 2.1 1.1 3.5 2.6zm64.9 13.9c2.3.5 3.5 1.5 4.5 3.8 1.3 3 8.8 10.7 11.7 11.9 1.6.7 1.9.5-9.9 8.2-4.2 2.7-11.4 8.7-16 13.3l-8.3 8.5-8.1-1.7c-4.5-.9-8.3-1.8-8.6-2-.5-.6 2.3-14.1 4.1-19.1 1.1-3.3 2.3-4.4 7.3-7 7.6-3.8 10.8-6.4 15.2-12 1.9-2.5 3.8-4.5 4.2-4.5.4 0 2.2.3 3.9.6z"/><path fill="#FFF" fill-opacity=".81" stroke="#FFF" stroke-opacity=".81" stroke-width=".3" d="M194 138.4c0 .2.8 1 1.8 1.7 1.5 1.3 1.6 1.2.3-.4s-2.1-2.1-2.1-1.3zm46 25c0 .2.8 1 1.8 1.7 1.5 1.3 1.6 1.2.3-.4s-2.1-2.1-2.1-1.3zM82.5 175c1 1.1 2 2 2.3 2 .3 0-.3-.9-1.3-2s-2-2-2.3-2c-.3 0 .3.9 1.3 2zM260 186.4c0 .2.8 1 1.8 1.7 1.5 1.3 1.6 1.2.3-.4s-2.1-2.1-2.1-1.3zM28.9 204.7c-1.3 1.6-1.2 1.7.4.4.9-.7 1.7-1.5 1.7-1.7 0-.8-.8-.3-2.1 1.3zM58.5 281c1 1.1 2 2 2.3 2 .3 0-.3-.9-1.3-2s-2-2-2.3-2c-.3 0 .3.9 1.3 2zm93.5 4.4c0 .2.8 1 1.8 1.7 1.5 1.3 1.6 1.2.3-.4s-2.1-2.1-2.1-1.3z"/><path fill="#FFF" fill-opacity=".78" stroke="#FFF" stroke-opacity=".78" stroke-width=".3" d="M190.5 228c-.3.5-.1 1 .4 1 .6 0 1.1-.5 1.1-1 0-.6-.2-1-.4-1-.3 0-.8.4-1.1 1z"/><path fill="#FFF" fill-opacity=".25" stroke="#FFF" stroke-opacity=".25" stroke-width=".3" d="M152.1 156.6c0 1.1.3 1.4.6.6.3-.7.2-1.6-.1-1.9-.3-.4-.6.2-.5 1.3zm-48 2c0 1.1.3 1.4.6.6.3-.7.2-1.6-.1-1.9-.3-.4-.6.2-.5 1.3zm45.1 34.9c0 1.6.2 2.2.5 1.2.2-.9.2-2.3 0-3-.3-.6-.5.1-.5 1.8zm-116 1.5c0 1.4.2 1.9.5 1.2.2-.6.2-1.8 0-2.5-.3-.6-.5-.1-.5 1.3zm232 5c0 1.4.2 1.9.5 1.2.2-.6.2-1.8 0-2.5-.3-.6-.5-.1-.5 1.3zM15.1 233.6c0 1.1.3 1.4.6.6.3-.7.2-1.6-.1-1.9-.3-.4-.6.2-.5 1.3zm88.7 39.1c.7.3 1.6.2 1.9-.1.4-.3-.2-.6-1.3-.5-1.1 0-1.4.3-.6.6zm5 0c.6.2 1.8.2 2.5 0 .6-.3.1-.5-1.3-.5-1.4 0-1.9.2-1.2.5z"/><path fill="#FFF" fill-opacity=".06" stroke="#FFF" stroke-opacity=".06" stroke-width=".3" d="m78.4 155.2-1.9 2.3 2.3-1.9c2.1-1.8 2.7-2.6 1.9-2.6-.2 0-1.2 1-2.3 2.2zm169 44-1.9 2.3 2.3-1.9c2.1-1.8 2.7-2.6 1.9-2.6-.2 0-1.2 1-2.3 2.2zM82 225.4c0 .2.8 1 1.8 1.7 1.5 1.3 1.6 1.2.3-.4s-2.1-2.1-2.1-1.3zm-7.1 25.3c-1.3 1.6-1.2 1.7.4.4.9-.7 1.7-1.5 1.7-1.7 0-.8-.8-.3-2.1 1.3zm60 62-3.4 3.8 3.8-3.4c3.4-3.3 4.2-4.1 3.4-4.1-.2 0-1.9 1.7-3.8 3.7z"/><path fill="#6FC" stroke="#6FC" stroke-width=".3" d="M317 168.1c0 .5.5.7 1 .4.6-.3 1-.8 1-1.1 0-.2-.4-.4-1-.4-.5 0-1 .5-1 1.1z"/></svg>